<svg width="119" height="55" viewBox="0 0 119 55" fill="none" xmlns="http://www.w3.org/2000/svg">
  <path fill-rule="evenodd" clip-rule="evenodd"
    d="M106.159 9.54353C105.585 9.60902 102.866 9.78867 100.158 9.93978C99.3222 9.98657 98.2242 10.0773 97.7179 10.1414C97.2118 10.206 96.6134 10.2584 96.3879 10.2579C95.3666 10.2556 95.3147 10.337 95.9416 10.9578C98.6475 13.6366 99.1271 14.0123 99.5392 13.7784C99.6155 13.7349 100.11 13.4972 100.638 13.2497C101.473 12.8586 102.666 12.2748 103.13 12.0301C103.212 11.9875 104.07 11.5669 105.039 11.0953C106.007 10.6242 106.852 10.2121 106.918 10.1798C107.626 9.83265 108.03 9.58797 107.994 9.52856C107.942 9.44435 106.957 9.4523 106.159 9.54353ZM46.234 12.7889C46.0581 12.8025 45.1037 12.8689 44.1138 12.9363C43.1238 13.0036 41.8097 13.0944 41.1935 13.1374C40.1442 13.2109 39.6932 13.2455 37.0331 13.456C36.4614 13.5014 35.3269 13.5739 34.5128 13.617C33.6988 13.66 32.4029 13.748 31.6328 13.8125C30.8628 13.8771 29.4766 13.9852 28.5526 14.053C22.9554 14.4642 22.7056 14.4871 22.0253 14.6635C20.3898 15.0874 19.2805 16.0216 18.4834 17.646C17.8943 18.8464 17.7119 19.2647 17.7119 19.4153C17.7119 19.485 17.6094 19.748 17.4845 19.9997C17.3591 20.2518 17.1032 20.8895 16.9156 21.4177C16.7276 21.9458 16.452 22.6696 16.3028 23.0266C16.1535 23.383 16.0314 23.7133 16.0314 23.7601C16.0314 23.8069 15.9786 23.9468 15.9135 24.0712C15.7395 24.4062 15.1514 25.8439 15.1514 25.9351C15.1514 25.9781 15.0635 26.2036 14.9554 26.4357C14.8478 26.6682 14.6822 27.092 14.5882 27.3779C14.4936 27.6642 14.2218 28.3622 13.9842 28.9297C13.746 29.4972 13.5514 29.9945 13.5514 30.0352C13.5514 30.0754 13.4667 30.2953 13.3629 30.5236C12.539 32.3379 13.2389 33.7961 15.0822 34.104C15.5135 34.176 19.2305 34.045 22.0319 33.8588C23.4073 33.7676 23.8069 33.7648 23.936 33.8471C24.0506 33.9196 23.7816 34.8249 23.3269 35.8986C23.1963 36.2069 23.0658 36.5727 23.0359 36.7121C22.9638 37.0532 22.9437 37.0579 21.1131 37.1426C18.8618 37.2469 15.3236 37.4438 13.9514 37.5407C13.3133 37.5861 12.0352 37.6572 11.1112 37.6993C8.98675 37.7957 8.64336 37.8841 7.35073 38.6654C6.98956 38.8838 5.39798 40.4581 5.09763 40.8937C4.98956 41.0509 4.7257 41.4312 4.51096 41.739C4.00476 42.4661 4.0347 42.4796 5.75073 42.3075C7.01295 42.1811 8.19564 42.0899 10.5512 41.9369C11.2113 41.8939 12.0394 41.8237 12.3912 41.7802C12.7435 41.7372 13.3554 41.682 13.7512 41.6576C15.3736 41.5575 18.9563 41.2904 20.1919 41.1767C20.918 41.1098 22.4483 40.9849 23.5921 40.8988C24.7365 40.8127 26.0146 40.7061 26.4324 40.6616C26.8506 40.6176 27.4443 40.5592 27.7526 40.5325C29.5149 40.3786 30.7112 39.6207 31.4172 38.2111C31.5248 37.9954 31.8354 37.369 32.1063 36.8188C32.3776 36.2686 32.6405 35.7465 32.6906 35.6586C33.2034 34.7575 33.3933 34.394 33.5467 34.0169C33.6459 33.7741 33.8288 33.4504 33.9533 33.2983L34.1793 33.0214L35.5664 32.9592C36.329 32.9245 37.5655 32.8422 38.3135 32.7762C39.0616 32.7103 40.2494 32.6181 40.9535 32.5718C43.5435 32.401 45.4616 32.2686 46.554 32.1858C47.5902 32.1077 48.2111 32.0684 51.7545 31.8565C52.4585 31.8148 53.3226 31.7442 53.6745 31.7007C54.0267 31.6567 55.1425 31.5847 56.1545 31.5402C57.1669 31.4962 58.139 31.442 58.3149 31.4205C58.4908 31.3985 59.3371 31.3442 60.1952 31.2993C61.892 31.2113 65.0125 30.9868 65.2852 30.9334C65.5182 30.8881 65.8616 30.4151 66.1184 29.7854C66.3191 29.2918 66.5905 28.686 67.0345 27.7381C67.1378 27.5182 67.3371 27.086 67.478 26.7781C67.6183 26.4698 67.8733 25.9285 68.0445 25.5749C68.2157 25.2212 68.3556 24.9021 68.3556 24.8661C68.3556 24.7033 69.398 22.6743 69.5023 22.634C69.6852 22.5639 72.633 22.5419 72.743 22.6097C72.7973 22.6434 72.9877 22.9016 73.1659 23.1842C73.6305 23.9196 73.7362 23.8818 74.1058 22.8464C74.2293 22.5007 74.4263 22.0062 74.5432 21.748C74.6602 21.4892 74.7561 21.2605 74.7561 21.2399C74.7561 21.2188 74.8075 21.0883 74.8707 20.9498C75.0971 20.4506 75.4948 19.4897 75.6366 19.0977C75.7161 18.8773 75.8475 18.525 75.929 18.3145C76.1376 17.7723 76.0988 17.7578 74.5563 17.8167C73.3133 17.8645 72.954 17.8907 70.0759 18.1409C69.3278 18.206 68.1217 18.2949 67.3956 18.3384C66.6695 18.3823 65.5355 18.4698 64.8754 18.533C64.2153 18.5961 63.288 18.6715 62.815 18.7005C61.7067 18.7678 61.6829 18.8586 62.5554 19.682C63.2609 20.3477 63.2974 20.5274 62.9128 21.4177C62.7683 21.7531 62.5259 22.3917 62.4127 22.7379C62.3477 22.9358 62.219 23.2778 62.1264 23.4977C62.0333 23.718 61.7577 24.4198 61.5131 25.0579C61.2688 25.696 61.0354 26.2981 60.9947 26.3959C60.8829 26.664 60.6321 26.6963 58.6747 26.6972L56.8749 26.6981L56.8988 26.0979C56.9119 25.7681 56.961 25.354 57.0078 25.1781C57.055 25.0018 57.1407 24.4979 57.1987 24.0577C57.2562 23.6179 57.3788 22.8436 57.4705 22.3379C57.5622 21.8317 57.673 21.1117 57.717 20.7374C57.7605 20.3636 57.8274 19.8415 57.8653 19.5777C57.914 19.2408 57.9079 19.0785 57.8447 19.0336C57.7399 18.9587 56.365 19.0027 54.8745 19.1276C54.3028 19.1758 53.1322 19.253 52.2742 19.2993C50.4155 19.3994 48.8136 19.5009 47.2342 19.6179C46.5961 19.6652 45.6684 19.7325 45.1729 19.7681C44.6775 19.8036 44.2504 19.8542 44.2246 19.8799C44.1643 19.9407 44.7566 20.9035 44.8848 20.9526C45.2567 21.0958 45.2548 21.7451 44.8805 22.1929C44.7449 22.3552 44.4988 22.6612 44.3341 22.8731C43.7587 23.6113 42.6433 25.0209 42.3416 25.3896C41.535 26.3767 41.5608 26.5344 42.5138 26.4609C42.8436 26.4352 43.5636 26.38 44.1138 26.3379C44.6639 26.2958 45.9641 26.2256 47.0026 26.1812C49.5364 26.074 49.5804 26.053 50.3252 24.598C50.6064 24.0492 50.9596 23.9734 50.8829 24.4778C50.8576 24.6429 50.7982 25.2282 50.75 25.7779C50.6223 27.2408 50.5736 27.2825 48.954 27.2951C48.5142 27.2988 47.6319 27.3358 46.9938 27.3779C45.1046 27.5023 41.2848 27.7124 37.4733 27.9014C36.0997 27.9697 36.0717 27.9472 36.4628 27.0813C36.6223 26.7276 36.7533 26.4029 36.7533 26.3599C36.7533 26.3168 36.9198 25.9253 37.1238 25.4897C37.3278 25.0542 37.6295 24.3739 37.7947 23.9777C38.5619 22.1381 38.4398 22.3257 39.2777 21.6979C39.9131 21.2212 40.7902 20.4843 40.8548 20.3735C40.932 20.2392 40.3453 20.1391 39.9 20.2102C39.7315 20.2373 38.874 20.2939 37.9949 20.336C36.3098 20.417 34.9526 20.5101 32.7131 20.6981C31.965 20.7608 30.9746 20.8338 30.5128 20.8605C29.2773 20.932 29.3895 20.8315 28.823 22.3777C28.6939 22.7299 28.5386 23.1257 28.4773 23.2577C28.416 23.3896 28.2574 23.7681 28.1245 24.0979C27.9921 24.4277 27.7372 25.0485 27.558 25.4771C27.3788 25.9061 27.2324 26.2963 27.2324 26.3444C27.2324 26.3926 27.1248 26.6654 26.9928 26.9503C26.8609 27.2352 26.7299 27.565 26.7014 27.6829C26.4693 28.6471 26.3121 28.7384 24.8857 28.737C23.3531 28.7355 23.3245 28.6972 23.9079 27.4373C24.0553 27.1187 24.2658 26.606 24.3758 26.2981C24.5629 25.7741 24.6747 25.4855 24.8408 25.0981C24.8782 25.0102 25.0143 24.6499 25.1435 24.2977C25.2721 23.9458 25.5271 23.2979 25.7096 22.8577C25.8925 22.4179 26.1311 21.8237 26.2401 21.5379C26.3491 21.2516 26.4759 20.9278 26.5217 20.8174C26.5676 20.7075 26.7566 20.2397 26.9414 19.7774C27.3605 18.7318 27.2918 18.766 29.1556 18.664C29.9683 18.6195 30.9746 18.5466 31.3928 18.5026C31.8106 18.4581 32.765 18.3852 33.5131 18.3412C34.2611 18.2967 35.9533 18.1723 37.2731 18.0647C38.5933 17.9571 40.2677 17.8439 40.9933 17.8135C41.7194 17.7826 42.4221 17.7138 42.5545 17.6595C42.7977 17.5604 46.176 14.1391 46.3018 13.864C46.3397 13.7821 46.4473 13.6726 46.5423 13.6207C47.0892 13.3199 47.2422 12.7197 46.764 12.7505C46.6485 12.758 46.4099 12.7753 46.234 12.7889ZM110.879 15.0275C108.69 15.187 106.916 15.3129 105.919 15.3802C103.281 15.5576 102.698 15.7264 101.678 16.6069C100.175 17.9037 100.275 19.4102 102.034 22.0179C102.108 22.1278 102.194 22.2719 102.224 22.3379C102.254 22.4039 102.44 22.7084 102.638 23.0144C103.131 23.7798 103.15 23.7727 100.038 23.9777C96.2901 24.2247 95.7254 24.2644 94.873 24.3398C92.9399 24.5105 92.8394 24.4628 93.2684 23.5735C93.5771 22.9339 93.8817 22.2635 94.1184 21.7021C94.2401 21.4135 94.4735 20.8717 94.6377 20.4974C94.8019 20.1236 95.0153 19.631 95.1121 19.4032C95.2094 19.1753 95.3268 18.9414 95.3732 18.8834C95.4199 18.8249 95.4854 18.6874 95.5182 18.5774C95.5514 18.4675 95.6801 18.1615 95.8045 17.8972C95.9285 17.6333 96.1385 17.1552 96.2714 16.8343L96.5133 16.2514L96.3187 16.1774C96.1395 16.1096 94.0117 16.1863 93.0775 16.2944C92.8796 16.3173 92.074 16.3739 91.2875 16.4198C89.6758 16.5138 89.4429 16.5835 89.3545 16.9961C89.324 17.1398 89.2707 17.2932 89.2365 17.3372C89.2019 17.3812 89.0789 17.6516 88.9629 17.9374C88.8473 18.2233 88.7037 18.5475 88.6443 18.6574C88.5853 18.7674 88.4394 19.1412 88.321 19.4878C88.2022 19.835 88.0735 20.177 88.0351 20.2481C87.9963 20.3192 87.9121 20.5035 87.848 20.6574C87.6076 21.2324 86.8099 23.1229 86.5086 23.8308C86.3374 24.2336 86.197 24.5985 86.197 24.6411C86.197 24.8333 84.1184 25.1454 83.7063 25.0149C83.4583 24.9358 83.478 24.6855 83.7877 23.994C83.9098 23.7213 84.0735 23.3358 84.1516 23.1379C84.2302 22.94 84.488 22.3421 84.7257 21.8092C84.9629 21.2768 85.157 20.8118 85.157 20.7767C85.157 20.7412 85.2796 20.4567 85.4293 20.1447C85.579 19.8326 85.8344 19.2535 85.9968 18.8577C86.1591 18.4614 86.3963 17.9117 86.5245 17.6357C86.9507 16.7164 86.8768 16.6738 85.1683 16.8525C83.7994 16.9961 81.2225 17.1898 79.7966 17.2563C77.6777 17.355 77.674 17.3583 78.6405 18.3463C79.4171 19.1398 79.3975 19.0382 78.9549 19.9777C78.5006 20.9414 78.3566 21.2661 78.3566 21.3246C78.3566 21.3554 78.2518 21.6053 78.1245 21.8794C77.9968 22.1536 77.8125 22.5756 77.7147 22.8179C77.6169 23.0598 77.3577 23.6539 77.1378 24.1377C76.5273 25.4841 75.7863 27.1711 75.5168 27.827C74.8866 29.3629 75.8541 30.1044 78.2766 29.9421C78.9587 29.8967 80.1647 29.8214 80.9568 29.7751C81.7488 29.7288 82.6569 29.6698 82.975 29.6441C83.6557 29.5889 83.7236 29.6572 83.5673 30.2415C83.4789 30.5723 83.3886 30.7898 82.8773 31.8986C82.7757 32.1185 82.6663 32.3884 82.6335 32.4984C82.6012 32.6083 82.4585 32.9507 82.3158 33.2586C82.1736 33.5664 82.0118 33.9627 81.9561 34.1386C81.849 34.4764 81.7011 34.823 81.2721 35.739C81.1275 36.0474 80.9835 36.4071 80.9512 36.539C80.9189 36.671 80.8104 36.9409 80.7098 37.1388C80.0936 38.3505 80.0216 38.7865 80.4613 38.6452C80.874 38.5124 81.5781 38.2504 81.8368 38.133C81.9687 38.0731 82.5086 37.8752 83.0368 37.6932C84.656 37.1346 85.0218 37.0013 85.4368 36.8179C85.6571 36.7206 86.233 36.4988 86.7172 36.3252C87.9697 35.8766 88.1301 35.755 88.3533 35.0864C88.4539 34.7851 88.6803 34.1788 88.8567 33.7386C89.0326 33.2983 89.2576 32.7224 89.3563 32.4586C89.455 32.1943 89.7231 31.4925 89.9519 30.8984C90.1802 30.3042 90.4019 29.7044 90.444 29.5655C90.5474 29.2254 90.7944 29.1496 92.1175 29.0541C92.7116 29.0111 93.6118 28.9405 94.1175 28.8974C94.6237 28.8539 95.776 28.7823 96.678 28.7384C97.5799 28.6944 98.4361 28.6382 98.5802 28.6144C98.8571 28.5676 101.043 28.4099 104.038 28.22C107.862 27.9777 108.942 27.6853 110.016 26.6032C111.131 25.4799 111.194 24.5461 110.249 23.1299C110.111 22.9241 109.819 22.4609 109.599 22.1012C109.379 21.7409 109.01 21.1571 108.779 20.8034C108.548 20.4492 108.359 20.1494 108.359 20.1367C108.359 20.1241 108.233 19.9262 108.079 19.6974C107.545 18.9049 107.537 18.9068 112.159 18.6509C115.084 18.489 115.054 18.5049 114.199 17.5828C113.891 17.2507 113.638 16.9517 113.637 16.918C113.636 16.8848 113.247 16.4497 112.773 15.9519C111.829 14.9592 111.828 14.9587 110.879 15.0275ZM19.558 45.1847C19.099 45.2436 18.6312 45.3273 18.518 45.3704C18.4043 45.4139 18.1858 45.4742 18.0319 45.5047C17.5248 45.6048 16.7772 46.0141 16.4464 46.373C16.0235 46.8314 16.0146 46.9086 16.0459 49.8602L16.0717 52.3004L16.4469 52.7879C16.9699 53.4677 17.2754 53.6239 18.8319 54.0085C20.4356 54.4048 25.2492 54.271 27.0733 53.7797C27.2347 53.7362 27.5598 53.6642 27.7952 53.6197C28.0305 53.5748 28.306 53.4841 28.408 53.4176L28.5924 53.2965V51.2628C28.5924 50.1442 28.5629 49.2108 28.5264 49.1884C28.4239 49.1248 22.8904 49.1182 22.7322 49.1814C22.6125 49.2286 22.5919 49.347 22.5919 49.9874V50.7379L22.9152 50.7898C23.4929 50.882 23.6165 51.6806 23.1121 52.0651C22.7182 52.3659 21.9042 52.3285 21.5697 51.9945L21.3521 51.7765L21.3273 49.8382C21.2974 47.4836 21.3039 47.4373 21.7142 47.1781C22.4043 46.7425 23.3924 47.0499 23.3924 47.7002C23.3924 48.2841 23.2805 48.2597 25.979 48.2597C28.8436 48.2597 28.5924 48.3678 28.5924 47.1374C28.5924 45.9875 28.5694 45.958 27.4724 45.7142C27.0546 45.6211 26.4515 45.4873 26.1325 45.4172C24.5853 45.0752 21.311 44.9596 19.558 45.1847ZM78.9488 45.1823C78.4609 45.2385 77.8925 45.3418 77.6861 45.412C77.4798 45.4822 77.274 45.5397 77.2291 45.5397C76.7842 45.5397 75.7788 46.2752 75.543 46.7734C75.2539 47.383 75.2539 51.6459 75.543 52.3622C76.0314 53.5729 77.514 54.1128 80.6368 54.2176C83.0134 54.2972 84.7406 54.1638 86.3996 53.7718C86.7533 53.6885 87.1374 53.6202 87.2534 53.6202C87.3699 53.6202 87.5757 53.5271 87.7109 53.4129L87.957 53.2057V51.2628C87.957 49.6572 87.9369 49.3025 87.8405 49.2225C87.6791 49.0887 82.2288 49.0934 82.067 49.2277C81.7704 49.4742 81.9701 50.8197 82.3037 50.8197C82.6723 50.8197 82.8403 51.5907 82.5591 51.9921C82.2733 52.4005 81.3021 52.3903 80.9114 51.9748C80.6574 51.7044 80.5591 47.9192 80.794 47.4644C81.2155 46.6499 82.5811 46.816 82.6892 47.6946C82.7612 48.2775 82.6644 48.2569 85.3788 48.2583L87.8012 48.2597L87.8817 48.0478C87.9261 47.9308 87.9523 47.4579 87.9397 46.9961C87.9116 45.9561 87.9037 45.9486 86.5573 45.6586C86.0291 45.5449 85.4574 45.4148 85.2871 45.3694C84.2307 45.0883 80.678 44.9835 78.9488 45.1823ZM32.8731 45.2338C32.7851 45.2829 32.7014 45.332 32.6878 45.3432C32.6742 45.354 32.6134 45.5379 32.5531 45.7512C32.4927 45.965 32.2583 46.6616 32.0319 47.2997C31.8055 47.9379 31.5664 48.6396 31.5 48.86C31.434 49.0799 31.3325 49.3676 31.2749 49.5C31.2174 49.6319 31.0911 49.9917 30.9942 50.3C30.7042 51.223 30.2747 52.1479 30.0263 52.3861C29.7446 52.656 29.6721 53.7283 29.9182 53.9743C30.1329 54.1891 35.4345 54.1615 35.5505 53.9453C35.7657 53.543 35.652 52.6672 35.347 52.3795C34.7874 51.8518 34.9255 51.7442 36.1933 51.717C37.7502 51.6838 37.9655 51.8078 37.3531 52.3851C37.0055 52.7131 36.918 53.8513 37.2281 54.0174C37.4686 54.146 43.5907 54.1297 43.6932 54.0001C43.7362 53.9453 43.7938 53.6272 43.8204 53.2936L43.8695 52.6869L43.4401 52.3159C43.0012 51.9374 42.8197 51.6291 42.5339 50.78C42.0665 49.3919 41.7226 48.4314 41.339 47.4429C41.1051 46.8394 40.9133 46.2892 40.9133 46.22C40.9133 46.0108 40.5245 45.311 40.3589 45.2225C40.1357 45.1032 33.0878 45.1135 32.8731 45.2338ZM45.194 45.2469C45.056 45.3503 45.034 45.4597 45.034 46.0455V46.7248L45.3339 47.0158L45.6338 47.3072V49.5875C45.6338 52.0408 45.6253 52.0979 45.2015 52.4941C44.9484 52.7304 44.8974 53.6071 45.1182 53.9224L45.2431 54.1002H48.3608H51.4784L51.5561 53.8948C51.7376 53.4176 51.6548 52.6799 51.398 52.4899C50.8295 52.0698 50.8141 50.5797 51.3778 50.5797C52.2728 50.5797 52.6405 50.9217 52.7116 51.82C52.7907 52.8155 52.9802 53.5182 53.2539 53.8298L53.4911 54.1002H56.1175H58.7439L58.8052 53.9201C58.9713 53.4312 58.8525 52.6303 58.5811 52.409C58.3261 52.2008 58.3219 52.1858 58.2752 51.347C58.2195 50.3407 58.1212 50.1919 57.2964 49.8597C56.7004 49.6202 56.6971 49.5711 57.2637 49.3409C58.3706 48.8913 58.7846 48.0113 58.4305 46.8642C58.1989 46.1147 57.6216 45.7414 56.3149 45.4953C56.0066 45.4373 55.5926 45.3479 55.3947 45.2965C54.786 45.1388 45.3998 45.0934 45.194 45.2469ZM63.1669 45.2455C63.0223 45.4195 62.6611 46.2654 62.5119 46.7795C62.343 47.3615 61.9393 48.5507 61.6155 49.42C61.3194 50.2158 61.143 50.7234 60.9488 51.3367C60.8604 51.6155 60.6728 51.9575 60.4969 52.161C60.0819 52.6406 59.9612 53.602 60.2695 53.9734C60.431 54.1676 65.6422 54.1648 65.8036 53.9701C66.0637 53.6567 65.9991 52.7589 65.695 52.4632C65.0448 51.8317 65.1996 51.7002 66.5956 51.7002C68.0024 51.7002 68.2312 51.8728 67.5954 52.4548C67.2459 52.7753 67.1757 53.6403 67.4756 53.9402C67.7212 54.1858 73.9018 54.191 74.0333 53.9453C74.1933 53.6469 74.1381 52.598 73.9598 52.5414C73.5982 52.4263 72.9021 51.1486 72.5867 50.0197C72.5432 49.8658 72.4057 49.4878 72.2803 49.18C72.1544 48.8717 71.9725 48.3678 71.8756 48.0595C71.7788 47.7517 71.6492 47.42 71.5874 47.3227C71.5261 47.2249 71.4752 47.0808 71.4737 47.0027C71.4691 46.6785 70.8548 45.339 70.6658 45.2408C70.3795 45.0916 63.2908 45.0962 63.1669 45.2455ZM89.9219 45.3175C89.7166 45.6099 89.7563 46.43 89.9973 46.8824L90.1975 47.2586V49.6679V52.0777L89.9973 52.3725C89.7535 52.7318 89.71 53.6202 89.9219 53.9224L90.0464 54.1002H96.2794C102.36 54.1002 102.515 54.0965 102.596 53.9453C102.724 53.7058 102.705 51.1014 102.574 50.9928C102.505 50.9358 101.68 50.9011 100.166 50.8908C97.6796 50.8745 97.7231 50.867 97.7179 51.2997C97.7114 51.8284 97.1991 52.1671 96.394 52.1755C95.8499 52.1816 95.798 52.1086 95.798 51.34C95.798 50.4614 95.7198 50.4997 97.4892 50.4997C99.273 50.4997 99.2379 50.5184 99.2379 49.5744C99.2379 48.728 99.2632 48.7397 97.4677 48.7397C95.7273 48.7397 95.798 48.7744 95.798 47.922C95.798 47.1308 95.8896 47.0635 96.7799 47.201C97.4064 47.2979 97.7179 47.5262 97.7179 47.8883C97.7179 48.2504 97.7811 48.2597 100.198 48.2597C101.871 48.2597 102.512 48.234 102.582 48.1638C102.765 47.9804 102.713 45.3236 102.524 45.2221C102.421 45.1673 100.302 45.1393 96.2078 45.1393H90.0464L89.9219 45.3175ZM52.1994 47.1407C53.6127 47.4087 53.1393 48.8197 51.6356 48.8197C51.0513 48.8197 50.9942 48.7416 50.9942 47.9397C50.9942 47.0261 51.128 46.9376 52.1994 47.1407ZM66.9633 48.6691C67.3587 49.8551 67.3465 49.8944 66.5755 49.9234L65.9556 49.9468V49.7161C65.9556 49.4349 66.2148 48.4001 66.3907 47.979C66.5605 47.573 66.6232 47.6483 66.9633 48.6691ZM36.5807 48.4006C37.0476 49.9725 37.0405 49.9898 35.9729 49.9519C35.5383 49.9365 35.5229 49.7264 35.8752 48.627C36.205 47.5959 36.3294 47.5556 36.5807 48.4006Z"
    fill="#F3D01D" />
  <path fill-rule="evenodd" clip-rule="evenodd"
    d="M100.519 0.045461C99.9251 0.073999 99.4016 0.121251 99.3562 0.150724C99.3108 0.17973 98.7167 0.242888 98.036 0.290607C96.6212 0.389788 95.7955 0.48897 94.5913 0.704174C94.1248 0.787917 93.6388 0.85622 93.5111 0.85622C93.2523 0.856688 91.0769 1.2099 90.6137 1.32686C90.4514 1.36757 90.1379 1.42464 89.9181 1.45365C89.6982 1.48218 89.0863 1.60803 88.5581 1.73294C88.0299 1.85832 87.4432 1.98277 87.2542 2.0099C87.0652 2.03704 86.5393 2.16616 86.0851 2.29762C85.6313 2.42862 85.192 2.53622 85.1087 2.53622C85.0259 2.53575 84.7419 2.60593 84.4776 2.69154C83.7473 2.9278 83.119 3.09622 82.966 3.09622C82.8902 3.09622 82.515 3.19867 82.1328 3.32405C81.7506 3.4499 81.1134 3.65388 80.7176 3.77832C78.6343 4.43189 75.8128 5.39469 75.6771 5.49855C75.6331 5.53224 75.4708 5.59586 75.3169 5.64031C75.163 5.68522 74.551 5.92616 73.9569 6.17598C73.3627 6.42627 72.7185 6.68639 72.5253 6.75469C72.3326 6.823 71.9723 6.98159 71.7253 7.10651C71.4788 7.23189 71.2458 7.33481 71.2079 7.33528C71.0933 7.33715 66.7171 9.48498 66.1164 9.83446C65.962 9.92428 65.62 10.1124 65.3562 10.2532C65.0923 10.3935 64.7237 10.605 64.5379 10.7229C64.3517 10.8403 64.1688 10.9367 64.1319 10.9367C64.0944 10.9367 63.8872 11.0625 63.6706 11.2164C63.454 11.3708 63.2467 11.4967 63.2107 11.4967C63.1747 11.4967 62.9763 11.6136 62.7704 11.7568C62.5646 11.8995 62.3241 12.0567 62.2357 12.1058C61.4806 12.5273 59.9559 13.5654 59.9559 13.6581C59.9559 13.8171 61.0329 13.7942 63.6762 13.579C64.2479 13.5322 65.2023 13.4578 65.7964 13.4139C66.8303 13.3367 67.5232 13.2866 70.2764 13.0906C70.9585 13.0424 72.1108 12.9526 72.8369 12.8913C73.563 12.83 74.7868 12.7425 75.5569 12.6967C76.3269 12.6513 77.425 12.576 77.9971 12.5292C78.5693 12.4829 79.6341 12.4136 80.3634 12.3757C81.0928 12.3374 81.9209 12.2681 82.2034 12.2218C82.486 12.1755 83.4736 12.1007 84.3976 12.0557C87.0839 11.9247 87.905 11.8171 87.7094 11.6216C87.6692 11.5814 85.9199 10.6686 85.5176 10.4782C84.334 9.91726 84.3036 9.75165 85.2107 8.81364C85.7393 8.26721 86.8083 7.33621 86.9075 7.33621C86.9436 7.33621 87.0774 7.24639 87.2056 7.13645C87.3333 7.02604 87.5639 6.87727 87.7178 6.80522C87.8718 6.73364 88.1478 6.57504 88.3307 6.45341C88.5132 6.3313 88.7475 6.20499 88.8505 6.17224C88.9539 6.13949 89.1639 6.03469 89.3178 5.93926C89.4722 5.84382 89.9943 5.59165 90.4781 5.37926C90.9623 5.16639 91.3941 4.96569 91.4381 4.93247C91.482 4.89972 91.6444 4.83516 91.7983 4.78932C92.1852 4.67423 92.7663 4.46698 92.9585 4.37575C93.2837 4.22183 96.8369 3.09294 96.9918 3.09481C97.1026 3.09622 97.6453 2.954 98.3588 2.73692C98.5567 2.67657 98.8626 2.60452 99.039 2.57692C99.4329 2.5147 100.276 2.31493 100.759 2.16944C100.957 2.11002 101.389 2.02534 101.719 1.98183C102.049 1.93832 102.751 1.81575 103.279 1.70955C103.807 1.60289 104.455 1.49295 104.719 1.46441C104.983 1.4354 105.523 1.35961 105.919 1.29505C107.698 1.0064 110.156 0.826747 113.08 0.772946L113.52 0.764525L113.08 0.602186C112.838 0.512829 112.316 0.405227 111.92 0.363589C111.524 0.321952 110.858 0.232128 110.44 0.163356C109.604 0.0262801 102.628 -0.0565272 100.519 0.045461ZM111.24 6.30464C110.258 6.41411 107.575 6.61434 105.479 6.73504C103.429 6.85341 100.959 7.03773 99.599 7.17434C99.1588 7.21832 98.0247 7.2899 97.0788 7.33341C96.1328 7.37692 94.8187 7.46627 94.1585 7.5327C93.4984 7.59867 92.6063 7.67493 92.1763 7.70206C91.1461 7.76709 91.0011 7.88358 91.4484 8.28592C91.6187 8.43937 92.3321 9.10744 93.0334 9.77036C93.7347 10.4338 94.6516 11.3007 95.0713 11.6969C96.4037 12.9545 96.4664 13.0209 96.3915 13.092C96.3096 13.1687 94.5988 13.3853 93.5583 13.4504C93.1845 13.4738 91.9784 13.5491 90.8781 13.6174C89.7782 13.6861 88.356 13.7942 87.7178 13.8574C87.0797 13.9205 86.0898 13.994 85.5176 14.0207C84.5712 14.0646 83.1536 14.169 79.0371 14.4983C78.2451 14.5619 77.2729 14.6148 76.8771 14.6157C76.4809 14.6171 75.8512 14.6541 75.4769 14.6981C75.1031 14.7421 74.1309 14.8122 73.3169 14.8548C72.5029 14.8969 71.6388 14.969 71.3969 15.0148C71.1545 15.0606 70.2006 15.1336 69.2766 15.1762C67.4175 15.2623 64.8448 15.4475 63.7959 15.5706C63.4221 15.6146 62.5758 15.6707 61.9157 15.6955C61.2561 15.7203 60.1038 15.7928 59.3557 15.8569C56.66 16.088 55.8914 16.1442 54.3952 16.2214C53.5592 16.2644 52.6245 16.3364 52.318 16.3818C52.0111 16.4267 51.1185 16.4974 50.3335 16.5381C49.5484 16.5792 48.5393 16.649 48.0907 16.6929C47.1185 16.7888 45.3482 16.837 45.2799 16.7692C45.2313 16.7205 45.8469 16.0281 46.8748 14.975C47.1826 14.6597 48.101 13.7049 48.915 12.8539C49.729 12.0029 50.7279 10.9619 51.1339 10.5414C51.5405 10.1208 51.8736 9.73153 51.8741 9.67633C51.8755 9.55235 50.8317 9.53925 50.1898 9.65481C49.9508 9.69832 49.0708 9.76943 48.2348 9.8134C46.4855 9.9051 44.9908 10.016 43.2532 10.183C42.5814 10.2476 41.2673 10.335 40.333 10.3776C39.3987 10.4202 38.0762 10.5081 37.3941 10.5727C35.584 10.7449 34.1618 10.8511 31.9536 10.9783C29.7749 11.1037 27.045 11.3063 26.5533 11.3788C26.377 11.4045 25.4591 11.4597 24.5131 11.5009C22.7718 11.5762 22.7798 11.5753 21.0324 12.0464C20.1206 12.292 18.4888 13.3563 17.9269 14.0716C17.4418 14.6897 17.1423 15.1505 16.8892 15.6693C16.391 16.6911 16.1122 17.3137 16.1122 17.4054C16.1122 17.5051 15.5166 19.0293 15.3576 19.3371C15.3005 19.4471 15.2294 19.6408 15.199 19.7671C15.169 19.8939 15.0418 20.2176 14.9159 20.4871C14.7905 20.757 14.6076 21.2295 14.5094 21.5374C14.4111 21.8457 14.2815 22.1685 14.2216 22.2555C14.1613 22.342 14.1122 22.4609 14.1122 22.5198C14.1122 22.6265 13.86 23.2464 13.7019 23.528C13.6556 23.6108 13.5704 23.8447 13.5124 24.0482C13.4549 24.2513 13.1882 24.9484 12.9197 25.5972C12.6516 26.2461 12.4322 26.8197 12.4322 26.8721C12.4322 26.9245 12.3629 27.1135 12.2783 27.2927C11.839 28.2232 11.366 29.5308 11.264 30.0983C11.2008 30.4501 11.1358 30.7753 11.1199 30.8202C11.0694 30.9633 11.3613 32.328 11.5002 32.5961C11.8675 33.3053 12.4275 33.9229 13.0904 34.35C13.5985 34.6775 13.6434 34.6648 11.5919 34.7752C7.51006 34.9947 5.84456 35.8588 3.54421 38.9511C3.23825 39.3624 2.72784 40.0216 2.40971 40.4159C1.87169 41.0835 1.60175 41.4143 0.484093 42.779C-0.0557905 43.4382 -0.112866 43.579 0.158947 43.579C0.505613 43.579 3.42445 43.3362 3.55544 43.2964C3.62374 43.2754 4.59544 43.2052 5.71544 43.1402C6.83544 43.0747 8.09392 42.9853 8.5117 42.9418C10.2652 42.7579 11.8993 42.6218 12.9122 42.5759C13.5063 42.5488 15.1625 42.4211 16.5922 42.2915C18.0223 42.1624 19.8586 42.0225 20.6726 41.9809C21.4867 41.9392 22.4228 41.8681 22.7526 41.8232C23.0829 41.7783 23.8567 41.703 24.4729 41.6557C25.089 41.6089 26.2413 41.521 27.0333 41.4606C27.8254 41.3998 28.6352 41.3076 28.8331 41.2557C29.4979 41.0803 30.2329 40.8403 30.3218 40.7692C30.3704 40.7303 30.5852 40.6054 30.799 40.4917C31.8965 39.9083 32.4551 39.2042 33.6172 36.9371C33.9662 36.2559 34.3087 35.5907 34.3779 35.4583C34.4476 35.3264 34.6025 35.0204 34.7227 34.7785C35.2762 33.6641 34.9894 33.7699 37.8572 33.6197C39.1204 33.5533 41.0544 33.426 42.1543 33.3362C43.2546 33.2468 45.1265 33.1233 46.3148 33.0616C47.5026 32.9998 48.529 32.9282 48.595 32.903C48.7143 32.8571 51.2907 32.6915 54.2755 32.5376C55.1335 32.4931 56.3213 32.4188 56.9155 32.3715C60.0261 32.1254 61.0175 32.0567 62.5159 31.9818C63.9283 31.9116 66.1005 31.7175 66.6465 31.6127C66.7602 31.5912 66.8893 31.4279 67.038 31.1191C67.7674 29.6024 68.3564 28.3219 68.3564 28.2536C68.3564 28.2298 68.5581 27.7886 68.8041 27.274C69.0502 26.7589 69.3005 26.2298 69.3595 26.0978C69.5747 25.6197 70.3611 23.9327 70.4603 23.739C70.6025 23.4592 70.8846 23.3399 71.4058 23.339C71.9349 23.3376 71.9836 23.3708 73.2289 24.5909C74.1524 25.4957 74.1487 25.4845 73.8062 26.2377C73.264 27.4312 73.5269 28.9006 74.4481 29.8218C75.3922 30.7654 76.5258 30.9956 78.9571 30.7374C81.1157 30.5081 81.1171 30.5086 80.6376 31.5093C80.4832 31.8307 80.3574 32.1586 80.3574 32.2382C80.3574 32.4613 80.1234 32.5077 78.2774 32.6494C77.3309 32.7219 76.0172 32.8333 75.3571 32.8969C74.697 32.96 73.7248 33.0326 73.1966 33.0574C72.6689 33.0826 71.8586 33.1378 71.3969 33.1804C68.8542 33.4152 66.8383 33.5752 65.9162 33.6155C65.344 33.6403 64.3181 33.7137 63.6359 33.7783C61.2738 34.0028 59.5906 34.1367 58.5155 34.1853C57.9218 34.212 57.1115 34.284 56.7157 34.3458C56.3194 34.4075 55.6715 34.4599 55.2752 34.4623C54.8794 34.4651 54.2675 34.5002 53.9152 34.5404C53.5634 34.5811 52.573 34.6513 51.715 34.6967C50.857 34.7425 49.6509 34.8309 49.0348 34.8931C48.4191 34.9558 47.1587 35.0639 46.2348 35.1331C43.7594 35.3189 42.6624 35.4045 41.6345 35.492C41.1283 35.535 39.904 35.6281 38.9141 35.6988C37.9241 35.7694 37.0057 35.8438 36.8738 35.8634C36.5763 35.9088 34.7966 37.6061 34.8635 37.7811C34.9103 37.9027 36.2745 37.8817 37.9541 37.7338C38.4163 37.6931 39.2804 37.6239 39.8741 37.579C40.4682 37.5345 41.2785 37.4625 41.6743 37.4181C42.0705 37.3741 43.097 37.303 43.9564 37.2599C44.8153 37.2169 45.6972 37.1486 45.9162 37.1079C46.1356 37.0676 46.7648 37.0106 47.315 36.9816C47.8647 36.9521 48.6928 36.8955 49.155 36.8552C49.6168 36.815 50.7152 36.7453 51.5952 36.6999C52.4752 36.6545 53.6991 36.5652 54.3152 36.502C54.9314 36.4384 56.2633 36.3289 57.2757 36.2583C58.2876 36.1881 59.5658 36.095 60.1159 36.052C60.6657 36.0089 61.6018 35.9378 62.1959 35.8943C62.7901 35.8503 63.8699 35.761 64.5959 35.695C65.322 35.6295 66.1683 35.5748 66.4762 35.5729C66.7845 35.5715 67.2883 35.5374 67.5962 35.4967C67.9045 35.456 68.7143 35.3862 69.3964 35.3413C70.7817 35.2501 73.3178 35.0489 74.5969 34.9292C77.1817 34.6864 79.1036 34.6265 79.2013 34.7851C79.2308 34.8333 79.1995 34.9862 79.1312 35.1252C79.0629 35.2646 78.9253 35.5944 78.8257 35.8588C78.726 36.1226 78.6189 36.3748 78.5875 36.4188C78.5567 36.4627 78.4374 36.7505 78.3227 37.0588C78.2081 37.3666 78.0565 37.7446 77.985 37.8985C77.9138 38.0529 77.8114 38.2868 77.7571 38.4188C77.4488 39.1715 77.265 39.601 77.0254 40.1268C76.8781 40.4501 76.7775 40.7472 76.8018 40.7869C76.8593 40.8796 77.294 40.881 77.351 40.7888C77.3749 40.75 77.7099 40.6194 78.0958 40.4978C78.4818 40.3766 78.8692 40.2391 78.9571 40.1923C79.1087 40.1123 79.374 40.0127 80.9974 39.426C81.3716 39.2908 81.7857 39.1308 81.9176 39.0704C82.0495 39.0096 82.3377 38.8988 82.5576 38.8234C82.7775 38.7481 83.3534 38.5409 83.8376 38.3626C84.3218 38.1848 84.9562 37.9561 85.2481 37.8555C85.5396 37.7544 85.9279 37.5996 86.1113 37.5107C86.2947 37.4223 86.5599 37.3259 86.7012 37.2964C86.8425 37.2669 87.0296 37.1982 87.1181 37.1439C87.206 37.0892 87.584 36.9479 87.9578 36.829C88.5819 36.6312 89.0081 36.4683 89.3178 36.3097C89.4633 36.2354 89.7613 35.6571 89.8806 35.2183C90.2877 33.7198 90.3218 33.6983 92.4785 33.5874C93.4025 33.5397 94.9506 33.4279 95.9185 33.339C96.8865 33.2506 98.5576 33.1243 99.6317 33.0592C100.706 32.9942 101.645 32.9217 101.72 32.8983C101.871 32.8501 104.347 32.6756 107.359 32.5002C108.459 32.4365 109.473 32.3636 109.612 32.3388C109.934 32.2817 112.37 32.0857 114.64 31.935C117.517 31.7441 117.428 31.7788 117.763 30.7126C117.883 30.3308 118.011 29.9809 118.047 29.9355C118.249 29.6763 117.998 29.6365 116.749 29.7301C116.073 29.7806 114.728 29.8742 113.76 29.9383C112.792 30.0024 111.712 30.0917 111.36 30.1371C111.008 30.1825 110.108 30.255 109.359 30.299C108.611 30.3425 107.568 30.4141 107.039 30.4571C106.511 30.5006 105.503 30.5713 104.799 30.6143C103.526 30.6924 102.407 30.786 100.879 30.9427C100.439 30.9876 99.4128 31.0569 98.5988 31.0967C97.7847 31.136 96.9206 31.2057 96.6788 31.2515C96.4364 31.2974 95.6266 31.3703 94.8785 31.4138C94.1305 31.4574 93.0572 31.5355 92.4935 31.5869C91.8418 31.6468 91.4413 31.6529 91.3927 31.6043C91.3085 31.5205 91.599 30.6372 91.8559 30.197L92.007 29.9383L93.0825 29.8443C93.6743 29.7928 94.8425 29.6913 95.6785 29.6192C96.5146 29.5467 97.9368 29.456 98.8388 29.4171C99.7408 29.3783 101.073 29.2913 101.799 29.2234C103.601 29.0555 106.388 28.8548 106.901 28.8567C107.346 28.8581 108.489 28.5961 108.856 28.4085C108.974 28.3477 109.13 28.2981 109.202 28.2981C109.35 28.2981 110.32 27.7455 110.8 27.3886C112.951 25.7877 113.325 23.1027 111.701 20.9376C111.339 20.4562 110.941 19.7521 110.988 19.6777C111.057 19.5697 112.371 19.4335 114.28 19.3362C115.138 19.2927 116.056 19.2211 116.32 19.1776C116.584 19.1341 117.056 19.0981 117.369 19.0976C118.084 19.0971 118.68 19.0176 118.68 18.9231C118.68 18.8417 118.61 18.7477 118.187 18.2695C118.025 18.0866 117.683 17.6964 117.427 17.4022C117.17 17.1079 116.66 16.532 116.292 16.1222C115.924 15.7123 115.497 15.2328 115.343 15.0569C115.188 14.881 114.783 14.4309 114.442 14.0567C114.101 13.6829 113.642 13.1608 113.422 12.8969C112.752 12.0918 112.786 12.1086 111.904 12.1269C111.477 12.1357 110.982 12.175 110.804 12.2143C110.625 12.2536 109.922 12.3079 109.24 12.3355C108.558 12.3626 107.319 12.4403 106.487 12.5077C105.655 12.575 104.849 12.6064 104.695 12.5774L104.416 12.525L104.647 12.3856C105.02 12.1615 106.226 11.5519 107.519 10.9348C108.18 10.62 108.792 10.3233 108.879 10.2756C108.967 10.2284 109.723 9.85036 110.559 9.43539C114.304 7.57855 114.254 7.60943 113.92 7.37458C113.832 7.31235 113.719 7.22674 113.669 7.18417C113.619 7.14159 113.295 6.90627 112.95 6.66159C112.27 6.18066 112.3 6.18674 111.24 6.30464ZM107.995 8.52826C108.031 8.58768 107.627 8.83235 106.919 9.17949C106.853 9.21177 106.007 9.62393 105.039 10.095C104.071 10.5666 103.213 10.9872 103.131 11.0298C102.667 11.2745 101.474 11.8583 100.639 12.2494C100.111 12.4969 99.6163 12.7346 99.5401 12.7781C99.1279 13.012 98.6484 12.6363 95.9424 9.9575C95.3155 9.33668 95.3674 9.25528 96.3887 9.25762C96.6142 9.25808 97.2126 9.20568 97.7188 9.14112C98.225 9.07703 99.323 8.98627 100.159 8.93949C102.867 8.78838 105.586 8.60873 106.159 8.54323C106.958 8.452 107.942 8.44405 107.995 8.52826ZM47.0647 11.8443C47.1676 11.9687 46.8387 12.4576 46.5431 12.6204C46.4481 12.6723 46.3405 12.7818 46.3026 12.8637C46.1768 13.1388 42.7985 16.5601 42.5552 16.6592C42.4228 16.7135 41.7201 16.7823 40.9941 16.8132C40.2684 16.8436 38.5941 16.9568 37.2738 17.0644C35.954 17.172 34.2619 17.2964 33.5138 17.3409C32.7658 17.3849 31.8114 17.4578 31.3936 17.5023C30.9753 17.5463 29.969 17.6192 29.1564 17.6637C27.2925 17.7657 27.3613 17.7315 26.9421 18.7771C26.7573 19.2394 26.5683 19.7072 26.5225 19.8171C26.4766 19.9275 26.3498 20.2513 26.2408 20.5376C26.1318 20.8235 25.8932 21.4176 25.7103 21.8574C25.5278 22.2976 25.2729 22.9456 25.1442 23.2974C25.0151 23.6496 24.879 24.0099 24.8415 24.0978C24.6755 24.4852 24.5636 24.7739 24.3765 25.2978C24.2666 25.6057 24.056 26.1184 23.9087 26.437C23.3253 27.6969 23.3538 27.7353 24.8864 27.7367C26.3129 27.7381 26.4701 27.6468 26.7021 26.6826C26.7307 26.5647 26.8616 26.2349 26.9936 25.95C27.1255 25.6651 27.2331 25.3923 27.2331 25.3441C27.2331 25.296 27.3795 24.9058 27.5587 24.4768C27.7379 24.0482 27.9929 23.4274 28.1253 23.0976C28.2581 22.7678 28.4167 22.3893 28.478 22.2574C28.5393 22.1254 28.6946 21.7296 28.8238 21.3774C29.3903 19.8312 29.278 19.9318 30.5136 19.8602C30.9753 19.8335 31.9657 19.7605 32.7138 19.6978C34.8308 19.5201 36.2839 19.4181 37.8408 19.3381C38.6291 19.2974 39.6673 19.2389 40.1477 19.208C41.242 19.1369 41.1503 19.2936 39.2785 20.6976C38.4406 21.3254 38.5627 21.1378 37.7955 22.9774C37.6303 23.3736 37.3286 24.0539 37.1246 24.4894C36.9206 24.925 36.7541 25.3165 36.7541 25.3596C36.7541 25.4026 36.6231 25.7273 36.4635 26.081C36.0724 26.947 36.1005 26.9694 37.4741 26.9011C41.2855 26.7121 45.1054 26.502 46.9945 26.3776C47.6327 26.3355 48.515 26.2985 48.9548 26.2948C50.5744 26.2822 50.6231 26.2405 50.7508 24.7776C50.799 24.2279 50.8584 23.6426 50.8837 23.4775C50.9604 22.9732 50.6072 23.0489 50.326 23.5977C49.5812 25.0527 49.5372 25.0737 47.0034 25.1809C45.9648 25.2253 44.6647 25.2955 44.1145 25.3376C43.5644 25.3797 42.8444 25.4349 42.5145 25.4606C41.5615 25.5341 41.5358 25.3764 42.3424 24.3893C42.6441 24.0206 43.7594 22.6111 44.3349 21.8728C44.4996 21.6609 44.7456 21.3549 44.8813 21.1926C45.2556 20.7449 45.2575 20.0955 44.8855 19.9523C44.7573 19.9032 44.1651 18.9404 44.2254 18.8796C44.2511 18.8539 44.6783 18.8033 45.1737 18.7678C45.6691 18.7322 46.5969 18.6649 47.235 18.6176C48.8144 18.5006 50.4163 18.3991 52.275 18.299C53.133 18.2527 54.3035 18.1755 54.8752 18.1273C56.3658 18.0024 57.7407 17.9584 57.8455 18.0333C57.9087 18.0782 57.9148 18.2405 57.8661 18.5774C57.8282 18.8412 57.7613 19.3633 57.7178 19.7371C57.6738 20.1114 57.563 20.8314 57.4713 21.3376C57.3796 21.8433 57.257 22.6176 57.1994 23.0574C57.1414 23.4976 57.0558 24.0015 57.0086 24.1778C56.9618 24.3537 56.9127 24.7678 56.8996 25.0976L56.8757 25.6978L58.6755 25.6969C60.6329 25.696 60.8837 25.6637 60.9955 25.3956C61.0362 25.2978 61.2696 24.6957 61.5138 24.0576C61.7585 23.4195 62.0341 22.7177 62.1272 22.4974C62.2198 22.2775 62.3485 21.9355 62.4135 21.7376C62.5267 21.3914 62.769 20.7528 62.9136 20.4174C63.2982 19.5271 63.2617 19.3474 62.5562 18.6817C61.6837 17.8583 61.7075 17.7675 62.8158 17.7002C63.2888 17.6712 64.2161 17.5959 64.8762 17.5327C65.5363 17.4695 66.6703 17.3821 67.3964 17.3381C68.1225 17.2946 69.3286 17.2057 70.0767 17.1406C72.9548 16.8904 73.3141 16.8642 74.5571 16.8164C76.0996 16.7575 76.1384 16.772 75.9298 17.3142C75.8484 17.5247 75.7169 17.877 75.6374 18.0974C75.4956 18.4894 75.0979 19.4504 74.8715 19.9495C74.8083 20.088 74.7569 20.2185 74.7569 20.2396C74.7569 20.2602 74.661 20.4889 74.544 20.7477C74.4271 21.0059 74.2301 21.5004 74.1066 21.8461C73.737 22.8815 73.6313 22.9194 73.1667 22.1839C72.9885 21.9013 72.798 21.6431 72.7438 21.6094C72.6338 21.5416 69.686 21.5636 69.5031 21.6337C69.3988 21.674 68.3564 23.703 68.3564 23.8658C68.3564 23.9018 68.2165 24.2209 68.0453 24.5746C67.8741 24.9282 67.6191 25.4695 67.4788 25.7778C67.3379 26.0857 67.1386 26.5179 67.0352 26.7378C66.5913 27.6857 66.3199 28.2915 66.1192 28.7851C65.8624 29.4148 65.519 29.8878 65.286 29.9332C65.0133 29.9865 61.8928 30.211 60.1959 30.299C59.3379 30.3439 58.4916 30.3982 58.3157 30.4202C58.1398 30.4417 57.1676 30.496 56.1552 30.5399C55.1433 30.5844 54.0275 30.6564 53.6752 30.7004C53.3234 30.7439 52.4593 30.8146 51.7552 30.8562C48.2118 31.0681 47.591 31.1074 46.5548 31.1855C45.4624 31.2684 43.5442 31.4008 40.9543 31.5715C40.2502 31.6178 39.0624 31.71 38.3143 31.776C37.5662 31.8419 36.3297 31.9243 35.5672 31.9589L34.18 32.0211L33.9541 32.2981C33.8296 32.4501 33.6467 32.7738 33.5475 33.0167C33.3941 33.3937 33.2041 33.7572 32.6914 34.6583C32.6413 34.7462 32.3784 35.2683 32.107 35.8185C31.8362 36.3687 31.5255 36.9951 31.4179 37.2108C30.7119 38.6204 29.5157 39.3783 27.7533 39.5322C27.445 39.5589 26.8514 39.6174 26.4331 39.6613C26.0153 39.7058 24.7372 39.8124 23.5929 39.8985C22.449 39.9846 20.9187 40.1095 20.1926 40.1764C18.9571 40.2901 15.3744 40.5572 13.7519 40.6573C13.3561 40.6817 12.7442 40.7369 12.3919 40.7799C12.0401 40.8234 11.2121 40.8936 10.5519 40.9366C8.19638 41.0896 7.01369 41.1809 5.75147 41.3072C4.03544 41.4793 4.0055 41.4658 4.5117 40.7388C4.72644 40.4309 4.99029 40.0506 5.09836 39.8934C5.39872 39.4578 6.9903 37.8835 7.35147 37.6651C8.6441 36.8838 8.98749 36.7954 11.1119 36.699C12.0359 36.6569 13.314 36.5858 13.9522 36.5404C15.3243 36.4436 18.8626 36.2466 21.1138 36.1423C22.9445 36.0576 22.9646 36.0529 23.0366 35.7119C23.0666 35.5724 23.1971 35.2066 23.3276 34.8983C23.7824 33.8246 24.0514 32.9193 23.9367 32.8468C23.8076 32.7645 23.4081 32.7673 22.0326 32.8585C19.2312 33.0447 15.5143 33.1757 15.0829 33.1037C13.2397 32.7958 12.5398 31.3376 13.3636 29.5233C13.4675 29.295 13.5522 29.0751 13.5522 29.0349C13.5522 28.9942 13.7468 28.4969 13.9849 27.9294C14.2226 27.3619 14.4944 26.6639 14.5889 26.3776C14.6829 26.0917 14.8485 25.6679 14.9561 25.4354C15.0642 25.2033 15.1522 24.9778 15.1522 24.9348C15.1522 24.8436 15.7402 23.4059 15.9143 23.0709C15.9793 22.9465 16.0322 22.8066 16.0322 22.7598C16.0322 22.713 16.1543 22.3827 16.3035 22.0263C16.4528 21.6693 16.7283 20.9456 16.9164 20.4174C17.104 19.8892 17.3599 19.2515 17.4853 18.9994C17.6102 18.7477 17.7126 18.4847 17.7126 18.415C17.7126 18.2644 17.8951 17.8461 18.4841 16.6457C19.2813 15.0214 20.3905 14.0871 22.0261 13.6632C22.7063 13.4869 22.9562 13.4639 28.5533 13.0527C29.4773 12.9849 30.8635 12.8768 31.6336 12.8122C32.4036 12.7477 33.6995 12.6597 34.5136 12.6167C35.3276 12.5736 36.4621 12.5011 37.0338 12.4557C39.6939 12.2452 40.1449 12.2106 41.1943 12.1371C41.8104 12.0941 43.1246 12.0033 44.1145 11.936C45.1045 11.8686 46.0589 11.8022 46.2348 11.7886C46.4107 11.775 46.6493 11.7577 46.7648 11.7502C46.8804 11.7428 47.0156 11.7853 47.0647 11.8443ZM112.774 14.9516C113.248 15.4494 113.636 15.8845 113.638 15.9177C113.639 15.9514 113.892 16.2504 114.2 16.5825C115.055 17.5046 115.084 17.4887 112.16 17.6506C107.538 17.9065 107.546 17.9046 108.079 18.6971C108.233 18.9259 108.36 19.1238 108.36 19.1364C108.36 19.1491 108.549 19.4489 108.779 19.8031C109.01 20.1568 109.38 20.7406 109.599 21.1009C109.82 21.4606 110.112 21.9238 110.25 22.1297C111.194 23.5458 111.132 24.4796 110.017 25.6029C108.943 26.685 107.863 26.9774 104.039 27.2197C101.044 27.4096 98.858 27.5673 98.581 27.6141C98.4369 27.6379 97.5808 27.6941 96.6788 27.7381C95.7768 27.782 94.6245 27.8536 94.1183 27.8971C93.6126 27.9402 92.7124 28.0108 92.1183 28.0539C90.7952 28.1493 90.5482 28.2251 90.4448 28.5652C90.4027 28.7041 90.181 29.3039 89.9527 29.8981C89.7239 30.4922 89.4558 31.194 89.3571 31.4583C89.2584 31.7222 89.0334 32.2981 88.8575 32.7383C88.6811 33.1785 88.4547 33.7848 88.3541 34.0861C88.1309 34.7547 87.9705 34.8763 86.7181 35.325C86.2338 35.4985 85.658 35.7203 85.4376 35.8176C85.0226 36.001 84.6568 36.1343 83.0376 36.6929C82.5094 36.8749 81.9695 37.0728 81.8376 37.1327C81.5789 37.2501 80.8748 37.5121 80.4622 37.645C80.0224 37.7862 80.0944 37.3502 80.7106 36.1385C80.8112 35.9406 80.9197 35.6707 80.952 35.5388C80.9843 35.4068 81.1283 35.0471 81.2729 34.7388C81.7019 33.8227 81.8498 33.4761 81.9569 33.1383C82.0126 32.9624 82.1744 32.5661 82.3167 32.2583C82.4594 31.9505 82.602 31.608 82.6343 31.4981C82.6671 31.3881 82.7765 31.1182 82.8781 30.8983C83.3894 29.7895 83.4797 29.572 83.5681 29.2412C83.7244 28.6569 83.6565 28.5886 82.9758 28.6438C82.6577 28.6695 81.7496 28.7285 80.9576 28.7748C80.1655 28.8211 78.9595 28.8964 78.2774 28.9418C75.8549 29.1041 74.8874 28.3626 75.5176 26.8267C75.7871 26.1708 76.5281 24.4838 77.1386 23.1374C77.3585 22.6536 77.6177 22.0595 77.7155 21.8176C77.8133 21.5753 77.9976 21.1533 78.1253 20.8791C78.2526 20.605 78.3574 20.3551 78.3574 20.3243C78.3574 20.2658 78.5014 19.9411 78.9557 18.9774C79.3983 18.038 79.4179 18.1395 78.6413 17.346C77.6748 16.358 77.6785 16.3547 79.7974 16.256C81.2233 16.1895 83.8002 15.9959 85.1691 15.8522C86.8776 15.6735 86.9515 15.7161 86.5253 16.6354C86.3971 16.9114 86.1599 17.4611 85.9976 17.8574C85.8353 18.2532 85.5798 18.8323 85.4301 19.1444C85.2804 19.4564 85.1578 19.7409 85.1578 19.7764C85.1578 19.8115 84.9637 20.2766 84.7265 20.8089C84.4888 21.3418 84.231 21.9397 84.1524 22.1376C84.0743 22.3355 83.9106 22.721 83.7885 22.9937C83.4788 23.6852 83.4591 23.9355 83.7071 24.0146C84.1192 24.1451 86.1978 23.833 86.1978 23.6408C86.1978 23.5982 86.3382 23.2333 86.5094 22.8305C86.8107 22.1226 87.6084 20.2321 87.8488 19.6571C87.9129 19.5032 87.9971 19.3189 88.036 19.2478C88.0743 19.1767 88.203 18.8347 88.3218 18.4875C88.4402 18.1409 88.5861 17.7671 88.6451 17.6571C88.7045 17.5472 88.8481 17.223 88.9637 16.9371C89.0797 16.6513 89.2027 16.3809 89.2374 16.3369C89.2715 16.2929 89.3249 16.1395 89.3553 15.9959C89.4437 15.5832 89.6767 15.5135 91.2884 15.4195C92.0748 15.3736 92.8804 15.317 93.0783 15.2941C94.0126 15.186 96.1403 15.1093 96.3195 15.1771L96.5141 15.2511L96.2722 15.834C96.1394 16.1549 95.9293 16.633 95.8053 16.8969C95.6809 17.1612 95.5522 17.4672 95.519 17.5771C95.4863 17.6871 95.4208 17.8246 95.374 17.8831C95.3277 17.9411 95.2102 18.175 95.1129 18.4029C95.0161 18.6307 94.8027 19.1233 94.6385 19.4971C94.4743 19.8714 94.2409 20.4132 94.1192 20.7018C93.8825 21.2632 93.578 21.9336 93.2692 22.5732C92.8402 23.4625 92.9408 23.5102 94.8739 23.3395C95.7263 23.2642 96.2909 23.2244 100.039 22.9774C103.151 22.7725 103.132 22.7795 102.639 22.0141C102.441 21.7081 102.255 21.4036 102.225 21.3376C102.195 21.2716 102.109 21.1275 102.035 21.0176C100.276 18.4099 100.176 16.9035 101.679 15.6066C102.698 14.7261 103.282 14.5573 105.919 14.3799C106.916 14.3126 108.691 14.1867 110.88 14.0272C111.829 13.9584 111.83 13.9589 112.774 14.9516ZM99.2982 15.3989C99.3464 15.5243 99.1139 16.2625 98.967 16.4492C98.916 16.5142 98.8673 17.0284 98.8509 17.6735C98.8196 18.9357 98.8715 19.1739 99.4208 20.2868C99.8727 21.2019 99.8746 21.201 97.2467 21.3264C95.6795 21.4012 95.6935 21.521 96.9571 18.8174C97.1939 18.3107 97.6084 17.3638 98.0425 16.3369C98.2287 15.8971 98.4481 15.4031 98.53 15.2398L98.6792 14.9428L98.966 15.1121C99.1242 15.2052 99.2734 15.3343 99.2982 15.3989ZM60.689 19.4653L61.2228 20.0525L61.1134 20.4351C60.9959 20.8482 60.7878 21.4396 60.515 22.1376C60.4205 22.3795 60.3073 22.7037 60.2633 22.8576C60.0079 23.7535 59.679 24.0319 59.1251 23.8213C58.9187 23.7427 58.9019 23.7091 58.9529 23.4761C59.097 22.816 59.3215 21.4695 59.3964 20.8174C59.4418 20.4216 59.5307 19.8812 59.5938 19.6174C59.657 19.3535 59.7286 19.0391 59.7529 18.9194C59.8161 18.6111 60.0224 18.7313 60.689 19.4653ZM42.8986 20.554C42.9127 20.6284 42.7503 20.9161 42.5379 21.193C42.3251 21.4705 42.0893 21.7942 42.0139 21.9126C41.9386 22.0305 41.6696 22.3813 41.4156 22.6915C41.162 23.0022 40.8542 23.3914 40.7321 23.557C39.7889 24.8351 39.6883 24.9348 39.3388 24.9367C38.9646 24.9381 38.9674 24.9063 39.4404 23.7951C39.679 23.2351 39.8741 22.7463 39.8741 22.7084C39.8741 22.6354 40.4523 22.0871 40.9178 21.7184C41.0698 21.5977 41.5152 21.245 41.9077 20.9348C42.61 20.3795 42.8472 20.2882 42.8986 20.554ZM20.2726 42.9633C20.2507 42.9844 19.7856 43.0442 19.2392 43.0962C17.1765 43.2931 15.7468 44.073 15.1269 45.3395L14.8724 45.8592V48.5394V51.2197L15.0797 51.7287C15.5709 52.9329 16.8088 53.8054 18.3924 54.0622C18.6128 54.0978 19.0446 54.1703 19.3524 54.2236C20.137 54.3593 24.5229 54.3649 25.3131 54.2316C25.6429 54.1759 26.1912 54.0983 26.5318 54.059C26.8719 54.0197 27.3038 53.9359 27.4918 53.8737C28.2703 53.6145 28.5491 53.6248 28.6778 53.9172L28.7933 54.1801L40.1543 54.2045C48.8565 54.2232 51.642 54.2063 52.0579 54.131C52.4715 54.0566 52.6226 54.0557 52.6937 54.1268C52.7639 54.197 55.5466 54.2199 63.9293 54.2199C76.4182 54.2199 75.2369 54.2774 75.2369 53.6716C75.2369 53.2421 75.5087 52.9881 75.6771 53.2604C76.4738 54.5493 84.9262 54.7392 88.0696 53.5387C88.5019 53.3736 88.6778 53.4213 88.6778 53.7025C88.6778 54.2667 87.9901 54.2199 96.2788 54.2199C103.548 54.2199 103.715 54.2166 103.796 54.0651C103.909 53.855 103.909 49.1444 103.796 48.9343C103.719 48.7897 103.615 48.7794 102.241 48.7794C100.66 48.7794 100.188 48.7032 100.474 48.4936C100.596 48.4042 100.963 48.3794 102.172 48.3794C103.614 48.3794 103.719 48.3696 103.796 48.2246C103.97 47.9013 103.904 43.1977 103.724 43.1018C103.487 42.975 88.9015 42.9876 88.7742 43.1149C88.7213 43.1678 88.6778 43.3437 88.6778 43.5055C88.6778 43.9771 88.5258 44.0412 87.8919 43.8372C85.381 43.0279 82.0453 42.742 78.8528 43.0625C76.8514 43.2632 75.344 43.9322 74.7157 44.8992C74.2572 45.6038 74.2465 45.6623 74.2002 47.6332C74.1763 48.6527 74.13 49.5135 74.0968 49.5467C74.064 49.5794 74.0369 49.5509 74.0369 49.4835C74.0369 49.4162 73.9723 49.2754 73.8933 49.1706C73.8142 49.0653 73.6462 48.663 73.5204 48.2761C73.3941 47.8896 73.265 47.557 73.2331 47.5369C73.2009 47.5172 73.1513 47.3745 73.1223 47.2192C73.0928 47.0644 72.9669 46.7097 72.842 46.4314C72.7176 46.153 72.5889 45.8059 72.5566 45.6594C72.5244 45.513 72.4004 45.1738 72.2806 44.9062C72.1609 44.6382 72.0378 44.3111 72.0069 44.1792C71.8773 43.6239 71.6224 43.114 71.4507 43.0681C71.2196 43.0059 62.6872 43.0078 62.4556 43.0695C62.2568 43.1228 62.0182 43.5827 61.9213 44.0992C61.8886 44.2723 61.8118 44.5109 61.7506 44.6297C61.6888 44.749 61.5499 45.1102 61.4409 45.4325C61.3323 45.7554 61.0961 46.4333 60.9159 46.9394C60.7358 47.4456 60.5585 47.9724 60.5225 48.11C60.4865 48.248 60.4322 48.4005 60.4018 48.4496C60.3718 48.4983 60.2984 48.7097 60.239 48.9189C59.8104 50.4295 59.4825 50.7911 59.3861 49.8597C59.3585 49.5958 59.2593 49.2052 59.1658 48.9923C58.9978 48.6115 58.9978 48.6017 59.1456 48.3921C60.3349 46.7111 59.4483 44.0585 57.5555 43.6337C57.4455 43.6089 57.0207 43.4971 56.6114 43.3853C56.1052 43.2468 55.4909 43.1561 54.6914 43.1018C53.1765 42.9984 44.1964 42.9951 44.0345 43.0976C43.9353 43.1603 43.9124 43.4414 43.9026 44.7205C43.8886 46.5507 43.9063 46.6821 44.1852 46.8042C44.5098 46.9469 44.5122 46.9591 44.5131 48.7139C44.5145 50.4744 44.4565 50.6966 44.0757 50.3808C43.9489 50.2751 43.4745 49.1743 43.4745 48.9848C43.4745 48.9156 43.4025 48.7247 43.3145 48.5605C43.2266 48.3963 43.1545 48.2045 43.1545 48.1338C43.1545 48.0637 43.1311 47.9827 43.1026 47.9542C43.0511 47.9027 42.9767 47.703 42.5622 46.4992C42.3349 45.8396 42.0635 45.0999 41.9456 44.8192C41.8544 44.6012 41.6472 44.015 41.5073 43.579C41.4436 43.3811 41.3314 43.1743 41.2579 43.1191C41.104 43.0045 32.2324 42.9717 32.0537 43.0849C31.941 43.1565 31.6144 43.9364 31.3945 44.6592C31.3145 44.9231 31.1171 45.4994 30.9562 45.9392C30.7952 46.3794 30.6352 46.8482 30.6011 46.9811C30.5664 47.1144 30.5014 47.2945 30.4565 47.3811C30.4116 47.4681 30.3512 47.6674 30.3232 47.8241C30.2951 47.9804 30.2001 48.2489 30.1126 48.4211C30.0252 48.5928 29.9536 48.7869 29.9536 48.8524C29.9536 48.9479 29.9335 48.9516 29.8535 48.8716C29.7795 48.7977 29.7463 48.1876 29.7267 46.5338L29.7 44.2957L29.3898 44.1376C29.2195 44.0506 29.0338 43.979 28.9781 43.979C28.922 43.979 28.6956 43.9111 28.4748 43.8279C27.7903 43.5701 26.0355 43.1851 25.1129 43.0906C24.2043 42.9975 20.3438 42.8959 20.2726 42.9633ZM24.493 44.1755C25.0759 44.2377 25.8142 44.3462 26.1332 44.4169C28.7952 45.0049 28.5931 44.8637 28.5931 46.1371C28.5931 47.3675 28.8443 47.2594 25.9798 47.2594C23.2813 47.2594 23.3931 47.2838 23.3931 46.6999C23.3931 46.0496 22.405 45.7423 21.715 46.1778C21.3047 46.437 21.2981 46.4833 21.3281 48.8379L21.3529 50.7762L21.5704 50.9942C21.9049 51.3282 22.719 51.3656 23.1129 51.0648C23.6172 50.6803 23.4937 49.8817 22.9159 49.7895L22.5926 49.7376V48.9872C22.5926 48.3467 22.6132 48.2283 22.733 48.1811C22.8911 48.1179 28.4247 48.1245 28.5271 48.1881C28.5636 48.2106 28.5931 49.1439 28.5931 50.2625V52.2962L28.4088 52.4173C28.3068 52.4838 28.0312 52.5745 27.7959 52.6194C27.5606 52.6639 27.2355 52.7359 27.0741 52.7794C25.25 53.2707 20.4364 53.4045 18.8326 53.0082C17.2761 52.6236 16.9707 52.4674 16.4476 51.7876L16.0724 51.3001L16.0467 48.8599C16.0153 45.9083 16.0242 45.8311 16.4471 45.3727C16.7779 45.0138 17.5255 44.6045 18.0326 44.5044C18.1866 44.474 18.405 44.4136 18.5187 44.3701C19.2649 44.0842 22.6151 43.9752 24.493 44.1755ZM83.8076 44.1741C84.4514 44.2363 85.1176 44.3242 85.2879 44.3692C85.4582 44.4145 86.0299 44.5446 86.5581 44.6583C87.9045 44.9483 87.9124 44.9558 87.9405 45.9958C87.9531 46.4576 87.927 46.9306 87.8825 47.0475L87.802 47.2594L85.3796 47.258C82.6652 47.2566 82.762 47.2772 82.69 46.6943C82.5819 45.8157 81.2163 45.6496 80.7948 46.4641C80.5599 46.9189 80.6582 50.7041 80.9122 50.9745C81.3029 51.39 82.2741 51.4003 82.5599 50.9918C82.8411 50.5904 82.6731 49.8194 82.3045 49.8194C81.9709 49.8194 81.7712 48.4739 82.0678 48.2274C82.2296 48.0931 87.6799 48.0885 87.8413 48.2223C87.9377 48.3022 87.9578 48.6569 87.9578 50.2625V52.2054L87.7118 52.4127C87.5765 52.5268 87.3707 52.6199 87.2542 52.6199C87.1382 52.6199 86.7541 52.6882 86.4004 52.7715C83.1953 53.5284 78.2951 53.3708 76.5169 52.4538C76.0687 52.2222 75.7436 51.8578 75.5438 51.3619C75.2547 50.6456 75.2547 46.3827 75.5438 45.7731C75.7796 45.2749 76.785 44.5394 77.2299 44.5394C77.2748 44.5394 77.4806 44.4819 77.687 44.4117C78.6418 44.0875 81.686 43.9692 83.8076 44.1741ZM40.3597 44.2223C40.5253 44.3107 40.9141 45.0106 40.9141 45.2197C40.9141 45.2889 41.1059 45.8391 41.3398 46.4426C41.7234 47.4311 42.0673 48.3916 42.5346 49.7797C42.8205 50.6288 43.002 50.9371 43.4408 51.3156L43.8703 51.6866L43.8212 52.2934C43.7945 52.6269 43.737 52.9451 43.6939 52.9998C43.5915 53.1294 37.4694 53.1458 37.2289 53.0171C36.9187 52.851 37.0062 51.7128 37.3538 51.3848C37.9662 50.8075 37.751 50.6835 36.194 50.7168C34.9262 50.7439 34.7882 50.8515 35.3477 51.3792C35.6528 51.6669 35.7665 52.5427 35.5512 52.9451C35.4352 53.1612 30.1337 53.1888 29.919 52.9741C29.6729 52.728 29.7454 51.6557 30.027 51.3858C30.2755 51.1476 30.7049 50.2227 30.995 49.2997C31.0918 48.9914 31.2181 48.6316 31.2757 48.4997C31.3332 48.3673 31.4348 48.0796 31.5007 47.8597C31.5671 47.6393 31.8062 46.9376 32.0326 46.2994C32.2591 45.6613 32.4935 44.9647 32.5538 44.7509C32.6142 44.5376 32.675 44.3537 32.6886 44.343C32.9145 44.1633 33.2925 44.1437 36.6193 44.1418C38.944 44.1399 40.2591 44.1685 40.3597 44.2223ZM55.3955 44.2962C55.5934 44.3476 56.0074 44.437 56.3157 44.495C57.6224 44.7411 58.1997 45.1144 58.4313 45.8639C58.7854 47.011 58.3714 47.891 57.2645 48.3406C56.6979 48.5708 56.7012 48.6199 57.2972 48.8594C58.122 49.1916 58.2203 49.3404 58.2759 50.3467C58.3227 51.1855 58.3269 51.2005 58.5819 51.4087C58.8532 51.63 58.9721 52.4309 58.806 52.9198L58.7447 53.0999H56.1183H53.4918L53.2547 52.8295C52.981 52.5179 52.7915 51.8152 52.7124 50.8197C52.6413 49.9214 52.2736 49.5794 51.3786 49.5794C50.8149 49.5794 50.8303 51.0695 51.3987 51.4896C51.6556 51.6796 51.7384 52.4173 51.5569 52.8945L51.4792 53.0999H48.3615H45.2439L45.119 52.9221C44.8982 52.6068 44.9491 51.7301 45.2022 51.4938C45.6261 51.0976 45.6345 51.0405 45.6345 48.5872V46.3069L45.3346 46.0155L45.0348 45.7245V45.0452C45.0348 44.4594 45.0567 44.35 45.1948 44.2466C45.4006 44.0931 54.7868 44.1385 55.3955 44.2962ZM70.6666 44.2405C70.8556 44.3387 71.4699 45.6782 71.4745 46.0024C71.4759 46.0805 71.5269 46.2246 71.5882 46.3224C71.65 46.4197 71.7796 46.7514 71.8764 47.0592C71.9733 47.3675 72.1552 47.8714 72.2811 48.1797C72.4065 48.4875 72.544 48.8655 72.5875 49.0194C72.9028 50.1483 73.599 51.426 73.9606 51.5411C74.1389 51.5977 74.1941 52.6466 74.0341 52.9451C73.9026 53.1907 67.722 53.1855 67.4764 52.9399C67.1765 52.64 67.2467 51.775 67.5962 51.4545C68.232 50.8725 68.0032 50.6999 66.5964 50.6999C65.2004 50.6999 65.0455 50.8314 65.6958 51.463C65.9999 51.7586 66.0645 52.6564 65.8044 52.9698C65.643 53.1645 60.4317 53.1673 60.2703 52.9731C59.962 52.6017 60.0827 51.6403 60.4977 51.1607C60.6736 50.9572 60.8612 50.6152 60.9496 50.3364C61.1438 49.7231 61.3202 49.2155 61.6163 48.4197C61.94 47.5504 62.3438 46.3612 62.5127 45.7792C62.6619 45.2651 63.0231 44.4192 63.1676 44.2452C63.2916 44.0959 70.3803 44.0913 70.6666 44.2405ZM102.524 44.2218C102.713 44.3233 102.766 46.9801 102.583 47.1635C102.513 47.2337 101.872 47.2594 100.199 47.2594C97.7819 47.2594 97.7188 47.2501 97.7188 46.888C97.7188 46.5259 97.4072 46.2976 96.7808 46.2007C95.8905 46.0632 95.7988 46.1306 95.7988 46.9217C95.7988 47.7741 95.7281 47.7394 97.4685 47.7394C99.264 47.7394 99.2388 47.7277 99.2388 48.5741C99.2388 49.5182 99.2739 49.4994 97.49 49.4994C95.7206 49.4994 95.7988 49.4611 95.7988 50.3397C95.7988 51.1083 95.8507 51.1813 96.3948 51.1752C97.1999 51.1668 97.7122 50.8281 97.7188 50.2994C97.7239 49.8667 97.6804 49.8742 100.167 49.8906C101.68 49.9008 102.506 49.9355 102.575 49.9925C102.705 50.1011 102.725 52.7055 102.596 52.9451C102.515 53.0962 102.361 53.0999 96.2802 53.0999H90.0472L89.9227 52.9221C89.7108 52.6199 89.7543 51.7315 89.9981 51.3722L90.1983 51.0774V48.6676V46.2583L89.9981 45.8821C89.7571 45.4297 89.7174 44.6096 89.9227 44.3172L90.0472 44.139H96.2086C100.303 44.139 102.421 44.1671 102.524 44.2218ZM51.0778 46.2143C51.0324 46.299 50.995 46.6255 50.995 46.9394C50.995 47.7413 51.0521 47.8194 51.6364 47.8194C53.14 47.8194 53.6135 46.4085 52.2001 46.1404C51.5237 46.0117 51.1737 46.0351 51.0778 46.2143ZM66.3915 46.9787C66.2156 47.3998 65.9564 48.4347 65.9564 48.7158V48.9465L66.5763 48.9231C67.3473 48.8941 67.3595 48.8548 66.9641 47.6688C66.624 46.648 66.5613 46.5727 66.3915 46.9787ZM36.2156 46.8361C36.0865 46.8824 35.6341 48.3022 35.6341 48.6606C35.6341 48.9334 35.6411 48.9399 35.9737 48.9516C37.0413 48.9895 37.0483 48.9722 36.5814 47.4003C36.4135 46.8356 36.3765 46.7785 36.2156 46.8361Z"
    fill="#1F268E" />
</svg>